<?xml version="1.0" standalone="no"?>
<!DOCTYPE svg PUBLIC "-//W3C//DTD SVG 20010904//EN" "http://www.w3.org/TR/2001/REC-SVG-20010904/DTD/svg10.dtd">
<svg version="1.0" xmlns="http://www.w3.org/2000/svg" width="160.000000pt" height="160.000000pt"
    viewBox="0 0 160.000000 160.000000" preserveAspectRatio="xMidYMid meet">
    <metadata>
        Created by potrace 1.10, written by Peter Selinger 2001-2011
    </metadata>
    <metadata>
        Image generated in https://picsvg.com/
    </metadata>
    <g transform="translate(0.000000,160.000000) scale(0.100000,-0.100000)" fill="#000000" stroke="none">
        <path d="M697 1448 c-24 -18 -74 -146 -82 -209 -5 -40 -13 -59 -31 -75 -21
-17 -26 -32 -31 -90 l-6 -70 -66 -18 c-36 -10 -72 -20 -79 -23 -9 -4 -12 5
-10 32 2 31 -3 42 -30 66 -18 16 -43 29 -56 29 -20 0 -28 -11 -55 -77 -17 -43
-31 -90 -31 -104 0 -15 -9 -38 -20 -52 -44 -56 -50 -88 -50 -270 l0 -173 29
-45 c15 -24 45 -59 64 -78 31 -29 45 -35 94 -39 54 -3 61 -7 103 -51 45 -48
46 -48 161 -69 64 -12 125 -22 136 -22 12 0 34 20 59 55 26 36 46 55 60 55 12
0 36 3 53 6 l31 7 0 -46 c0 -69 12 -74 124 -48 51 12 125 37 164 56 69 33 71
34 77 79 8 51 14 56 33 26 19 -31 40 -24 75 26 49 69 55 97 56 242 1 105 -3
140 -16 170 -9 20 -20 51 -23 67 -4 25 -17 37 -80 71 -68 37 -102 65 -145 116
-9 11 -37 19 -76 24 -54 6 -69 12 -104 45 -39 36 -44 38 -122 41 l-82 3 -11
85 c-15 106 -15 102 -35 180 -18 68 -30 90 -49 90 -7 0 -20 -6 -29 -12z m51
-125 c11 -54 26 -136 32 -183 6 -47 17 -123 23 -170 l13 -85 72 -14 c71 -15
72 -15 72 -47 0 -26 -9 -41 -49 -76 l-50 -43 14 -85 c8 -47 15 -102 15 -122
l0 -38 45 0 c37 0 45 3 45 19 0 13 88 196 106 219 1 2 27 -12 58 -32 l56 -36
0 -59 c0 -67 9 -78 44 -59 40 22 154 117 160 135 9 22 -3 32 -15 11 -8 -14
-17 -11 -73 27 -71 47 -147 79 -246 102 -36 8 -71 17 -77 19 -7 2 -13 18 -13
37 l0 33 -72 15 -73 15 -7 59 c-4 33 -10 71 -13 84 l-6 24 81 -5 c76 -4 83 -7
118 -40 31 -29 49 -37 106 -46 66 -11 95 -28 96 -59 0 -6 41 -33 90 -59 69
-36 90 -52 90 -68 0 -12 9 -34 20 -51 17 -26 20 -47 20 -173 0 -123 -3 -148
-20 -180 -32 -62 -37 -67 -52 -55 -7 6 -26 13 -41 15 -23 5 -30 1 -38 -19 -5
-13 -9 -37 -9 -52 0 -22 -8 -31 -37 -45 -58 -28 -168 -64 -218 -72 l-45 -6 0
46 c0 57 -16 67 -85 55 -27 -4 -55 -8 -62 -8 -6 -1 -28 -24 -48 -52 l-37 -51
-51 6 c-29 4 -83 13 -120 21 -60 12 -73 20 -110 60 -39 41 -47 46 -102 51 -68
8 -74 11 -127 77 l-38 49 0 174 c0 180 7 223 43 253 10 7 17 26 17 42 0 22 44
163 56 178 2 2 15 -7 29 -20 20 -20 25 -33 25 -78 0 -60 -10 -59 103 -18 66
25 87 24 47 -1 -17 -10 -20 -23 -20 -77 0 -49 4 -67 15 -71 26 -10 17 -21 -22
-28 -21 -3 -60 -17 -86 -30 l-49 -24 -10 29 c-12 36 -31 37 -76 3 -28 -22 -33
-32 -30 -56 4 -21 1 -27 -9 -24 -16 7 -17 -16 -1 -32 25 -25 38 -13 38 34 0
33 5 51 18 60 26 20 28 18 55 -38 14 -29 41 -69 61 -87 24 -24 36 -44 36 -63
0 -23 6 -29 40 -39 22 -7 42 -10 45 -7 3 3 14 70 26 149 20 143 20 144 0 160
-13 11 -20 31 -22 62 -3 41 1 51 30 81 29 30 33 41 38 109 5 64 9 77 28 87 18
9 25 27 34 81 11 71 57 199 70 199 5 0 17 -44 29 -97z m315 -570 c57 -8 165
-53 228 -94 47 -30 50 -34 33 -44 -10 -5 -33 -24 -51 -41 l-32 -31 -3 56 -3
56 -78 44 c-67 37 -80 42 -92 30 -7 -8 -39 -64 -70 -126 -32 -62 -61 -110 -65
-108 -6 4 -23 140 -25 191 0 18 87 86 102 79 8 -3 33 -8 56 -12z m-546 -35
c-3 -13 -8 -50 -12 -83 -8 -83 -14 -105 -25 -105 -6 0 -10 10 -10 23 0 14 -19
41 -50 72 -27 27 -50 52 -50 56 0 8 118 58 139 59 9 0 11 -7 8 -22z" />
        <!-- fill color path -->
        <path fill="rgba(0,0,0,0.3)" d="M697 1448 c-24 -18 -74 -146 -82 -209 -5 -40 -13 -59 -31 -75 -21
-17 -26 -32 -31 -90 l-6 -70 -66 -18 c-36 -10 -72 -20 -79 -23 -9 -4 -12 5
-10 32 2 31 -3 42 -30 66 -18 16 -43 29 -56 29 -20 0 -28 -11 -55 -77 -17 -43
-31 -90 -31 -104 0 -15 -9 -38 -20 -52 -44 -56 -50 -88 -50 -270 l0 -173 29
-45 c15 -24 45 -59 64 -78 31 -29 45 -35 94 -39 54 -3 61 -7 103 -51 45 -48
46 -48 161 -69 64 -12 125 -22 136 -22 12 0 34 20 59 55 26 36 46 55 60 55 12
0 36 3 53 6 l31 7 0 -46 c0 -69 12 -74 124 -48 51 12 125 37 164 56 69 33 71
34 77 79 8 51 14 56 33 26 19 -31 40 -24 75 26 49 69 55 97 56 242 1 105 -3
140 -16 170 -9 20 -20 51 -23 67 -4 25 -17 37 -80 71 -68 37 -102 65 -145 116
-9 11 -37 19 -76 24 -54 6 -69 12 -104 45 -39 36 -44 38 -122 41 l-82 3 -11
85 c-15 106 -15 102 -35 180 -18 68 -30 90 -49 90 -7 0 -20 -6 -29 -12z m51
-125 m315 -570 c57 -8 165
-53 228 -94 47 -30 50 -34 33 -44 -10 -5 -33 -24 -51 -41 l-32 -31 -3 56 -3
56 -78 44 c-67 37 -80 42 -92 30 -7 -8 -39 -64 -70 -126 -32 -62 -61 -110 -65
-108 -6 4 -23 140 -25 191 0 18 87 86 102 79 8 -3 33 -8 56 -12z m-546 -35
c-3 -13 -8 -50 -12 -83 -8 -83 -14 -105 -25 -105 -6 0 -10 10 -10 23 0 14 -19
41 -50 72 -27 27 -50 52 -50 56 0 8 118 58 139 59 9 0 11 -7 8 -22z" />
        <path d="M675 1167 c-5 -19 -2 -42 10 -72 18 -50 40 -73 24 -26 -6 16 -14 51
-18 78 -7 45 -8 46 -16 20z" />
        <path d="M761 1081 c0 -19 -9 -43 -18 -53 -16 -18 -16 -18 0 -12 20 7 31 41
24 75 -3 18 -5 15 -6 -10z" />
        <path d="M620 1063 c0 -15 -2 -46 -5 -68 -5 -40 -5 -40 6 5 6 25 12 46 14 48
2 2 16 -4 30 -14 27 -18 27 -18 15 1 -6 11 -23 28 -36 38 -24 18 -24 18 -24
-10z" />
        <path d="M1131 943 c20 -8 42 -26 48 -39 10 -23 66 -64 86 -64 6 1 -7 10 -27
21 -21 10 -44 32 -53 48 -8 16 -28 34 -46 40 -46 16 -51 12 -8 -6z" />
        <path d="M635 907 c-4 -15 -20 -35 -37 -45 -27 -15 -28 -20 -23 -57 7 -40 29
-85 43 -85 4 1 17 9 30 19 26 22 29 69 8 146 -13 47 -14 48 -21 22z m13 -89
c-4 -64 -28 -77 -48 -27 -13 30 -12 33 14 55 15 13 29 24 32 24 3 0 4 -24 2
-52z" />
        <!-- fill color path hole 1-->
        <path fill="rgba(0,0,0,0.3)" d="M635 907 c-4 -15 -20 -35 -37 -45 -27 -15 -28 -20 -23 -57 7 -40 29
-85 43 -85 4 1 17 9 30 19 26 22 29 69 8 146 -13 47 -14 48 -21 22z" />
        <path d="M1286 831 c13 -13 84 -52 84 -46 0 6 -77 55 -87 55 -4 0 -3 -4 3 -9z" />
        <path d="M872 759 c-32 -23 -42 -37 -41 -57 1 -20 2 -22 6 -7 2 11 23 37 46
57 51 46 46 49 -11 7z" />
        <path d="M575 687 c-4 -21 -5 -41 -1 -44 3 -4 6 3 6 15 0 11 7 22 16 24 13 3
13 5 0 23 -14 19 -15 18 -21 -18z" />
        <path d="M388 568 c7 -7 12 -21 12 -32 -1 -21 -1 -21 -17 -1 -14 18 -15 18 -9
2 3 -10 6 -23 6 -28 0 -11 11 -11 28 -1 15 10 -3 72 -21 72 -7 0 -7 -4 1 -12z" />
        <path d="M717 563 c-3 -5 -8 -27 -12 -50 -6 -38 -4 -43 21 -59 39 -26 64 -27
89 -4 20 19 21 26 12 61 -7 28 -17 43 -34 50 -29 11 -70 12 -76 2z m92 -37
c-1 -6 1 -19 6 -29 9 -21 -10 -47 -35 -47 -22 0 -60 33 -60 51 0 8 7 24 15 36
13 19 19 20 45 11 17 -5 30 -15 29 -22z" />
        <!-- fill color path hole 2-->
        <path fill="rgba(0,0,0,0.3)" d="M717 563 c-3 -5 -8 -27 -12 -50 -6 -38 -4 -43 21 -59 39 -26 64 -27
89 -4 20 19 21 26 12 61 -7 28 -17 43 -34 50 -29 11 -70 12 -76 2z" />
        <path d="M1019 513 c-6 -16 -16 -37 -21 -48 -9 -18 -9 -19 6 -5 15 15 40 80
30 80 -2 0 -9 -12 -15 -27z" />
        <path d="M278 423 c-18 -5 -54 -53 -40 -53 5 0 17 9 27 20 27 30 42 24 50 -17
4 -20 13 -46 21 -57 14 -20 14 -20 14 7 0 36 -29 107 -44 106 -6 -1 -19 -3
-28 -6z" />
        <path d="M359 400 c11 -19 21 -47 21 -62 0 -16 5 -28 10 -28 26 0 -1 81 -36
110 -12 11 -11 6 5 -20z" />
        <path d="M874 364 c-51 -59 -52 -61 -31 -45 19 15 82 91 75 91 -3 0 -22 -20
-44 -46z" />
        <path d="M560 381 c-7 -13 -7 -22 0 -26 15 -9 30 4 30 26 0 25 -16 25 -30 0z" />
        <path d="M1188 366 c-21 -17 -24 -27 -21 -58 4 -25 11 -38 24 -41 22 -6 26 8
4 17 -21 8 -19 50 4 70 15 13 28 16 53 11 39 -9 35 -2 -7 12 -26 9 -35 7 -57
-11z" />
    </g>
</svg>
