<?xml version="1.0" standalone="no"?>
<!DOCTYPE svg PUBLIC "-//W3C//DTD SVG 20010904//EN" "http://www.w3.org/TR/2001/REC-SVG-20010904/DTD/svg10.dtd">
<svg version="1.0" xmlns="http://www.w3.org/2000/svg" width="120.000000pt" height="120.000000pt"
        viewBox="0 0 120.000000 120.000000" preserveAspectRatio="xMidYMid meet">
        <metadata>
                Created by potrace 1.10, written by Peter Selinger 2001-2011
        </metadata>
        <metadata>
                Image generated in https://picsvg.com/
        </metadata>
        <g transform="translate(0.000000,120.000000) scale(0.100000,-0.100000)" fill="#000000" stroke="none">
                <path d="M475 1036 c-77 -18 -126 -38 -169 -71 -62 -47 -64 -60 -65 -364 -1
-310 1 -319 73 -371 69 -51 163 -75 296 -74 129 1 209 21 285 74 73 50 75 60
74 371 -1 309 -2 318 -73 369 -88 65 -288 96 -421 66z m266 -36 c75 -16 148
-57 176 -99 28 -42 29 -61 2 -95 -47 -60 -216 -111 -336 -102 l-53 5 0 -82 c0
-57 3 -77 10 -67 5 8 10 34 10 57 0 32 5 46 23 58 22 16 22 16 28 -47 5 -58 6
-59 7 -16 2 46 18 71 31 49 5 -7 13 -4 24 10 19 22 37 18 37 -9 1 -15 2 -15
11 1 6 9 15 15 20 11 6 -3 20 4 31 16 19 20 21 20 34 3 7 -10 14 -13 14 -6 0
6 20 19 43 29 29 12 48 28 57 47 6 15 14 27 16 25 2 -2 4 -32 5 -66 2 -56 -1
-66 -25 -91 -86 -90 -308 -124 -475 -73 l-54 17 2 86 c2 84 2 85 -26 99 -15 8
-30 16 -33 17 -3 2 -3 -26 -2 -62 2 -36 8 -65 13 -65 5 0 9 6 10 13 0 6 7 -6
15 -27 8 -22 12 -41 10 -43 -7 -7 -39 13 -64 40 -20 21 -23 36 -26 131 -2 96
0 111 18 138 62 91 269 136 447 98z m-312 -477 c40 -13 91 -18 176 -18 138 0
205 16 281 68 l49 32 -3 -145 c-4 -172 -7 -179 -106 -230 -64 -32 -74 -34
-189 -38 -137 -5 -207 8 -282 53 -71 41 -75 52 -78 216 l-3 145 49 -33 c27
-18 74 -41 106 -50z" />
                <!-- fill color path -->
                <path fill="rgba(0,0,0,0.3)" d="M475 1036 c-77 -18 -126 -38 -169 -71 -62 -47 -64 -60 -65 -364 -1
-310 1 -319 73 -371 69 -51 163 -75 296 -74 129 1 209 21 285 74 73 50 75 60
74 371 -1 309 -2 318 -73 369 -88 65 -288 96 -421 66z" />
                <path d="M441 653 c0 -46 3 -62 9 -48 4 11 6 29 3 41 -5 25 20 54 50 55 20 1
20 2 -3 9 -57 18 -60 16 -59 -57z" />
                <path d="M880 530 c-45 -36 -156 -64 -257 -64 l-93 -1 0 -130 c0 -88 3 -125
10 -115 5 8 10 56 10 106 0 89 8 114 37 114 10 0 14 -27 15 -107 l2 -108 3 93
c4 88 5 93 28 102 14 5 25 14 25 20 0 5 9 10 20 10 19 0 20 -7 22 -102 l2
-103 5 95 c5 78 9 95 22 95 9 0 24 8 34 18 12 12 20 15 25 8 12 -20 106 30
118 62 12 32 6 34 -28 7z" />
                <path d="M318 419 c2 -91 6 -119 15 -110 16 16 27 13 27 -8 0 -26 10 -51 21
-51 5 0 9 56 9 124 l0 124 -36 21 c-19 12 -36 21 -37 21 -1 0 -1 -55 1 -121z
m29 -61 c-2 -18 -4 -4 -4 32 0 36 2 50 4 33 2 -18 2 -48 0 -65z" />
                <path d="M445 418 c7 -165 9 -173 14 -68 l6 105 30 6 c19 4 23 7 10 8 -11 1
-30 4 -41 7 -20 5 -21 3 -19 -58z" />
        </g>
</svg>
