<?xml version="1.0" standalone="no"?>
<svg width="210" height="170" xmlns="http://www.w3.org/2000/svg" xmlns:svg="http://www.w3.org/2000/svg">
    <g id="head">
        <path fill="black" stroke="black" stroke-width="2"
            d="M201.881,121.301 c-1.143,6.031-2.676,12.105-5.123,17.748 c-1.308,2.933-2.872,5.875-5.282,8.054 c-3.323,2.986-7.789,4.261-12.021,5.375 c-9.012,2.232-18.461,3.575-27.688,4.57 c-22.03,2.327-44.751,1.954-66.844,0.553 c-12.77-0.914-26.057-2.174-38.608-4.662 c-5.906-1.22-11.959-2.599-17.539-4.923 c-2.002-0.859-3.948-1.917-5.632-3.309 c-1.594-1.306-2.934-2.914-4.04-4.647 c-2.477-3.92-4.134-8.333-5.454-12.761 c-3.245-11.179-4.104-23.023-3.236-34.605 c0.391-5.044,1.275-10.105,2.601-14.987 c1.559-6.026,4.935-14.216,6.919-20.155 c0.598-1.831,1.053-3.736,1.171-5.663 c0.072-1.23,0.084-2.572,0.052-3.806 c-0.109-5.073-0.754-13.947-0.803-19.018 c-0.013-4.191,0.092-8.552,1.764-12.462 c0.667-1.585,1.586-3.07,2.66-4.411 c0.521-0.645,1.065-1.301,1.71-1.827 c0.522-0.43,1.122-0.773,1.77-0.972 c0.727-0.228,1.5-0.286,2.258-0.252 c1.701,0.088,3.376,0.57,4.995,1.074 c2.333,0.748,4.74,1.724,6.995,2.682 c8.3,3.487,18.92,9.054,27.078,13.03 c1.366,0.642,2.805,1.235,4.326,1.335 c0.823,0.061,1.669,0.025,2.491-0.043 c2.569-0.239,8.812-1.273,11.424-1.665 c12.006-1.758,24.308-1.719,36.337-0.185 c0.69,0.108,11.701,1.642,11.897,1.636 c0.75,0.077,1.519,0.138,2.272,0.123 c1.049-0.011,2.092-0.221,3.079-0.573 c2.453-0.848,9.434-4.419,11.913-5.56 c5.675-2.65,11.721-5.312,17.602-7.47 c2.542-0.918,5.23-1.8,7.864-2.406 c1.694-0.384,3.444-0.69,5.182-0.743 c1.468-0.035,3.001,0.086,4.332,0.756 c0.731,0.369,1.357,0.928,1.843,1.583 c0.789,1.063,1.284,2.319,1.718,3.561 c0.862,2.57,1.537,5.319,2.138,7.963 c1.09,4.97,1.918,10.1,2.145,15.186 c0.264,5.006-0.324,11.19-0.728,16.214 c-0.1,1.531-0.171,3.101,0.025,4.625 c0.12,0.958,0.37,1.906,0.692,2.815 c0.944,2.563,2.809,6.544,3.735,9.101 c1.246,3.292,2.263,6.729,2.863,10.2 c0.997,5.663,1.196,11.51,1.143,17.251 C203.797,106.862,203.188,114.186,201.881,121.301Z
            M39.762,151.491 L39.762,151.491 Q112,165 174.263,153.663 C178.168,148.362 181.595,142.628 184.147,136.552 C186.251,131.557 187.763,126.275 188.579,120.915 C189.43,115.484 189.521,109.845 189.356,104.356 C189.198,99.393 188.801,94.299 187.946,89.408 C186.746,82.544 184.651,75.789 181.556,69.538 C179.006,64.42 175.722,59.641 171.946,55.351 C168.107,50.997 163.397,47.473 158.386,44.576 C152.27,41.037 145.62,38.203 139.017,35.706 L139.017,35.706 C128.255,38.806 117.944,43.627 108.136,48.988 L108.136,48.988 C98.463,42.884 87.542,38.857 76.591,35.706 L76.591,35.707 C67.769,38.606 58.794,41.891 51.23,47.398 C46.672,50.743 42.623,54.813 39.125,59.247 C35.117,64.36 31.788,70.051 29.339,76.069 C25.481,85.537 24.504,95.928 24.648,106.074 C24.909,122.801 30.152,137.845 39.762,151.491Z" />
    </g>
</svg>
