<?xml version="1.0" standalone="no"?>
<!DOCTYPE svg PUBLIC "-//W3C//DTD SVG 20010904//EN" "http://www.w3.org/TR/2001/REC-SVG-20010904/DTD/svg10.dtd">
<svg version="1.0" xmlns="http://www.w3.org/2000/svg" width="160.000000pt" height="160.000000pt"
    viewBox="0 0 160.000000 160.000000" preserveAspectRatio="xMidYMid meet">
    <metadata>
        Created by potrace 1.10, written by Peter Selinger 2001-2011
    </metadata>
    <metadata>
        Image generated in https://picsvg.com/
    </metadata>
    <g transform="translate(0.000000,160.000000) scale(0.100000,-0.100000)" fill="#000000" stroke="none">
        <path d="M838 1331 c-55 -11 -107 -50 -171 -129 -79 -96 -150 -218 -196 -337
-34 -88 -47 -134 -78 -285 -23 -116 8 -367 52 -418 31 -36 45 -22 80 76 63
179 153 322 330 522 170 193 278 265 418 279 74 7 107 23 107 53 0 27 -131
138 -204 172 -114 55 -258 83 -338 67z m232 -61 c36 -12 89 -35 118 -52 60
-34 160 -123 150 -133 -3 -4 -28 -9 -55 -11 -118 -10 -199 -44 -292 -123 -117
-100 -320 -342 -394 -470 -47 -80 -104 -210 -112 -254 -8 -39 -20 -48 -29 -19
-13 44 -27 147 -30 223 -11 266 121 599 313 797 24 24 57 50 74 58 43 20 172
11 257 -16z" />
        <path d="M810 1256 c0 -2 24 -18 53 -34 28 -17 65 -41 81 -54 l28 -24 -109
-109 c-155 -155 -240 -289 -307 -486 -43 -127 -28 -122 19 6 24 66 48 121 54
123 6 2 9 8 6 12 -10 16 145 251 159 243 5 -4 6 -2 3 4 -3 5 37 52 89 103 l95
94 24 -29 c14 -17 29 -43 34 -60 8 -26 9 -27 10 -7 1 13 -10 39 -24 59 -13 20
-22 39 -20 43 9 14 115 33 152 27 26 -4 33 -3 23 3 -22 14 -109 11 -155 -5
-22 -8 -40 -15 -41 -15 0 0 -16 14 -34 30 -50 44 -140 93 -140 76z" />
    </g>
</svg>
