<?xml version="1.0" standalone="no"?>
<!DOCTYPE svg PUBLIC "-//W3C//DTD SVG 20010904//EN" "http://www.w3.org/TR/2001/REC-SVG-20010904/DTD/svg10.dtd">
<svg version="1.0" xmlns="http://www.w3.org/2000/svg" width="160.000000pt" height="160.000000pt"
    viewBox="0 0 160.000000 160.000000" preserveAspectRatio="xMidYMid meet">
    <metadata>
        Created by potrace 1.10, written by Peter Selinger 2001-2011
    </metadata>
    <metadata>
        Image generated in https://picsvg.com/
    </metadata>
    <g transform="translate(0.000000,160.000000) scale(0.100000,-0.100000)" fill="#000000" stroke="none">
        <path d="M620 1437 c-115 -48 -317 -195 -371 -269 -58 -81 -129 -372 -115
-477 9 -64 71 -244 111 -320 27 -50 49 -76 93 -108 68 -51 190 -114 287 -148
58 -21 72 -23 83 -11 11 11 4 25 -41 89 -80 111 -90 142 -85 275 l3 111 35 36
c19 20 57 53 83 72 57 42 73 41 188 -13 86 -41 115 -73 197 -221 57 -102 88
-136 156 -170 43 -22 52 -23 74 -12 30 17 101 108 148 191 40 70 40 75 5 198
-19 67 -22 99 -21 290 l0 216 -38 64 c-47 78 -103 120 -247 181 l-100 43 -195
3 c-186 4 -198 3 -250 -20z m460 -33 c30 -9 99 -39 153 -66 76 -39 104 -59
126 -92 53 -77 52 -75 51 -294 0 -163 3 -218 16 -261 31 -106 34 -152 13 -201
-20 -44 -125 -190 -138 -190 -3 0 -6 28 -6 63 -1 54 -6 73 -46 147 -25 47 -62
110 -81 141 -34 51 -42 58 -116 87 -144 57 -161 59 -248 34 -85 -25 -137 -57
-202 -125 -51 -52 -62 -87 -62 -207 0 -95 21 -159 79 -243 18 -27 31 -50 29
-52 -6 -6 -148 60 -216 100 -128 75 -164 127 -231 338 -38 120 -39 184 -7 327
38 164 61 217 125 280 92 91 275 209 358 230 58 15 337 4 403 -16z m-73 -676
c53 -19 98 -42 113 -58 34 -37 136 -218 143 -255 15 -81 17 -105 9 -105 -5 0
-28 13 -51 28 -31 21 -54 50 -83 103 -103 190 -156 245 -274 285 -30 10 -54
22 -54 26 0 20 113 7 197 -24z" />
        <path d="M382 1197 c-36 -36 -101 -162 -89 -173 6 -6 120 51 223 112 64 38
119 62 158 70 l61 13 -65 -6 c-36 -3 -72 -11 -81 -19 -8 -8 -18 -14 -21 -14
-4 0 -44 -21 -90 -48 -88 -50 -133 -72 -148 -72 -14 0 27 102 48 120 22 19 57
60 51 60 -3 0 -24 -19 -47 -43z" />
        <path d="M835 1214 c-180 -54 -275 -107 -327 -184 -76 -112 -137 -327 -123
-434 10 -75 35 -169 50 -186 7 -8 22 -33 33 -55 11 -22 36 -58 56 -80 l37 -40
-41 59 c-22 33 -40 64 -40 70 0 5 -8 19 -19 30 -49 55 -65 248 -31 382 26 101
102 256 143 290 44 38 192 108 271 129 36 10 63 22 60 26 -6 11 -8 11 -69 -7z" />
        <path d="M925 1219 c-3 -3 28 -9 68 -12 39 -4 95 -9 122 -11 34 -4 25 -1 -25
9 -91 18 -160 24 -165 14z" />
        <path d="M1185 1190 c-7 -12 1 -15 73 -29 65 -13 71 -13 52 -1 -8 5 -25 10
-38 10 -13 0 -36 7 -52 15 -18 9 -31 11 -35 5z" />
        <path d="M305 873 c-61 -38 -105 -73 -91 -73 4 0 35 18 69 40 34 22 66 39 71
37 6 -2 13 -14 17 -28 6 -21 7 -21 8 9 1 17 1 35 2 39 2 18 -20 11 -76 -24z" />
    </g>
</svg>
